<svg xmlns="http://www.w3.org/2000/svg" id="svg1" version="1.1" viewBox="0 0 121.23612 92.981728" height="92.981728mm" width="121.23612mm">
  <defs id="defs1"></defs>
  <g transform="translate(-39.952374,-128.09076)" id="layer1">
    <rect y="128.09076" x="39.952374" height="92.981728" width="121.23613" id="rect2" style="fill:#e3dbdb;fill-opacity:0.999499;stroke-width:0.592473"></rect>
    <path aria-label="Placeholder" style="font-size:16.9333px;line-height:1.25;letter-spacing:0px;word-spacing:0px;fill:#666666;stroke-width:0.264583" id="text2" d="m 53.598718,169.92249 v 4.63847 h 2.100126 q 1.165818,0 1.802471,-0.60358 0.636652,-0.60358 0.636652,-1.71979 0,-1.10794 -0.636652,-1.71152 -0.636653,-0.60358 -1.802471,-0.60358 z m -1.670179,-1.37252 h 3.770305 q 2.075322,0 3.133653,0.94257 1.066599,0.93431 1.066599,2.74505 0,1.82728 -1.066599,2.76158 -1.058331,0.93431 -3.133653,0.93431 h -2.100126 v 4.96093 h -1.670179 z m 10.145097,-0.5209 h 1.521351 v 12.86534 h -1.521351 z m 8.913133,8.21034 q -1.843811,0 -2.554878,0.42167 -0.711066,0.42168 -0.711066,1.43867 0,0.81029 0.529166,1.28984 0.537433,0.47129 1.455205,0.47129 1.265037,0 2.025712,-0.89296 0.768944,-0.90124 0.768944,-2.38952 v -0.33899 z m 3.034434,-0.62839 v 5.28339 h -1.521351 v -1.4056 q -0.520897,0.84336 -1.298109,1.2485 -0.777212,0.39688 -1.901689,0.39688 -1.422133,0 -2.265491,-0.79375 -0.835089,-0.80202 -0.835089,-2.14147 0,-1.56269 1.041795,-2.35644 1.050063,-0.79375 3.125384,-0.79375 h 2.133199 v -0.14883 q 0,-1.05006 -0.69453,-1.62056 -0.686261,-0.57878 -1.934762,-0.57878 -0.793748,0 -1.546155,0.19017 -0.752408,0.19017 -1.446938,0.57051 v -1.4056 q 0.83509,-0.32246 1.62057,-0.47956 0.78548,-0.16536 1.529619,-0.16536 2.009176,0 3.001362,1.04179 0.992185,1.0418 0.992185,3.15846 z m 9.797833,-3.62148 v 1.42214 q -0.64492,-0.35554 -1.298109,-0.52917 -0.644921,-0.1819 -1.306378,-0.1819 -1.48001,0 -2.298563,0.94258 -0.818553,0.9343 -0.818553,2.62929 0,1.69498 0.818553,2.63756 0.818553,0.93431 2.298563,0.93431 0.661457,0 1.306378,-0.17364 0.653189,-0.1819 1.298109,-0.53743 v 1.4056 q -0.636652,0.29765 -1.322914,0.44648 -0.677993,0.14883 -1.446937,0.14883 -2.091858,0 -3.323822,-1.31465 -1.231963,-1.31464 -1.231963,-3.54706 0,-2.26549 1.240232,-3.5636 1.2485,-1.29811 3.414771,-1.29811 0.702799,0 1.372524,0.14883 0.669725,0.14056 1.298109,0.42994 z m 10.566776,3.89433 v 0.74414 h -6.994908 q 0.09922,1.57096 0.942576,2.39778 0.851626,0.81856 2.364709,0.81856 0.87643,0 1.694983,-0.21498 0.826822,-0.21497 1.637107,-0.64492 v 1.43867 q -0.818554,0.34727 -1.678448,0.52917 -0.859894,0.1819 -1.744593,0.1819 -2.215881,0 -3.51399,-1.28984 -1.289841,-1.28985 -1.289841,-3.48919 0,-2.27376 1.223695,-3.60494 1.231964,-1.33945 3.315554,-1.33945 1.868616,0 2.951752,1.20716 1.091404,1.19889 1.091404,3.26594 z m -1.521351,-0.44648 q -0.01654,-1.2485 -0.702799,-1.99264 -0.677993,-0.74414 -1.80247,-0.74414 -1.273305,0 -2.042249,0.71933 -0.760675,0.71934 -0.87643,2.02572 z m 11.716059,-0.13229 v 5.58931 h -1.52135 v -5.5397 q 0,-1.31465 -0.51263,-1.96784 -0.51263,-0.65319 -1.53789,-0.65319 -1.231962,0 -1.943028,0.78548 -0.711067,0.78548 -0.711067,2.14147 v 5.23378 h -1.529619 v -12.86534 h 1.529619 v 5.04361 q 0.545702,-0.83509 1.281573,-1.2485 0.744142,-0.41341 1.711522,-0.41341 1.59576,0 2.41432,0.99218 0.81855,0.98392 0.81855,2.90215 z m 6.62284,-2.60449 q -1.2237,0 -1.93476,0.95911 -0.71107,0.95085 -0.71107,2.61276 0,1.66191 0.7028,2.62102 0.71106,0.95085 1.94303,0.95085 1.21542,0 1.92649,-0.95912 0.71107,-0.95911 0.71107,-2.61275 0,-1.64538 -0.71107,-2.60449 -0.71107,-0.96738 -1.92649,-0.96738 z m 0,-1.28984 q 1.98437,0 3.11711,1.28984 1.13275,1.28984 1.13275,3.57187 0,2.27376 -1.13275,3.57187 -1.13274,1.28984 -3.11711,1.28984 -1.99264,0 -3.12539,-1.28984 -1.12447,-1.29811 -1.12447,-3.57187 0,-2.28203 1.12447,-3.57187 1.13275,-1.28984 3.12539,-1.28984 z m 6.77167,-3.3817 h 1.52135 v 12.86534 h -1.52135 z m 10.79828,5.01054 v -5.01054 h 1.52135 v 12.86534 h -1.52135 v -1.38906 q -0.47955,0.82682 -1.21543,1.23196 -0.7276,0.39688 -1.75286,0.39688 -1.67844,0 -2.73678,-1.33945 -1.05006,-1.33945 -1.05006,-3.52226 0,-2.18281 1.05006,-3.52226 1.05834,-1.33945 2.73678,-1.33945 1.02526,0 1.75286,0.40514 0.73588,0.39688 1.21543,1.2237 z m -5.18417,3.23287 q 0,1.67845 0.68626,2.63756 0.69453,0.95084 1.90169,0.95084 1.20716,0 1.90169,-0.95084 0.69453,-0.95911 0.69453,-2.63756 0,-1.67845 -0.69453,-2.62929 -0.69453,-0.95912 -1.90169,-0.95912 -1.20716,0 -1.90169,0.95912 -0.68626,0.95084 -0.68626,2.62929 z m 17.76012,-0.38861 v 0.74414 h -6.99491 q 0.0992,1.57096 0.94258,2.39778 0.85162,0.81856 2.36471,0.81856 0.87643,0 1.69498,-0.21498 0.82682,-0.21497 1.63711,-0.64492 v 1.43867 q -0.81856,0.34727 -1.67845,0.52917 -0.8599,0.1819 -1.74459,0.1819 -2.21589,0 -3.51399,-1.28984 -1.28985,-1.28985 -1.28985,-3.48919 0,-2.27376 1.2237,-3.60494 1.23196,-1.33945 3.31555,-1.33945 1.86862,0 2.95176,1.20716 1.0914,1.19889 1.0914,3.26594 z m -1.52135,-0.44648 q -0.0165,-1.2485 -0.7028,-1.99264 -0.67799,-0.74414 -1.80247,-0.74414 -1.27331,0 -2.04225,0.71933 -0.76067,0.71934 -0.87643,2.02572 z m 9.38442,-2.38125 q -0.25631,-0.14882 -0.56223,-0.21497 -0.29766,-0.0744 -0.66146,-0.0744 -1.28984,0 -1.98437,0.84335 -0.68626,0.83509 -0.68626,2.40605 v 4.87825 h -1.52962 v -9.2604 h 1.52962 v 1.43867 q 0.47955,-0.84336 1.2485,-1.2485 0.76894,-0.41341 1.86861,-0.41341 0.1571,0 0.34727,0.0248 0.19017,0.0165 0.42168,0.0579 z"></path>
  </g>
</svg>
